<svg width="1440" height="366" viewBox="0 0 1440 366" fill="none" xmlns="http://www.w3.org/2000/svg">
<rect width="1440" height="366" fill="#565656"/>
<path d="M74.9448 51.9187L66.6015 67.3653C66.0677 68.3641 65.4306 69.1045 64.6901 69.5867C63.9668 70.0689 63.1919 70.31 62.3653 70.31C61.7282 70.31 61.0394 70.155 60.2989 69.845L60.7122 68.7601C61.2977 69.0012 61.8487 69.1218 62.3653 69.1218C63.588 69.1218 64.604 68.4416 65.4133 67.0812L66.0333 66.0221L58.6199 51.9187H60.0664L66.7565 64.7823L73.5758 51.9187H74.9448ZM82.1569 70.1033C80.8482 70.1033 79.6772 69.8106 78.644 69.2251C77.6107 68.6396 76.8014 67.8302 76.2159 66.797C75.6304 65.7466 75.3377 64.567 75.3377 63.2583C75.3377 61.9323 75.6304 60.7527 76.2159 59.7195C76.8014 58.669 77.6107 57.8597 78.644 57.2914C79.6772 56.7059 80.8482 56.4132 82.1569 56.4132C83.2418 56.4132 84.2233 56.6284 85.1016 57.059C85.997 57.4722 86.7203 58.0836 87.2713 58.8929L86.3156 59.5903C85.8334 58.9187 85.2307 58.4194 84.5075 58.0922C83.8014 57.7478 83.0179 57.5756 82.1569 57.5756C81.1065 57.5756 80.1594 57.8166 79.3156 58.2988C78.489 58.7638 77.8346 59.4267 77.3524 60.2878C76.8875 61.1488 76.655 62.1389 76.655 63.2583C76.655 64.3776 76.8875 65.3677 77.3524 66.2288C77.8346 67.0898 78.489 67.7614 79.3156 68.2435C80.1594 68.7085 81.1065 68.941 82.1569 68.941C83.0179 68.941 83.8014 68.7774 84.5075 68.4502C85.2307 68.1058 85.8334 67.5978 86.3156 66.9262L87.2713 67.6236C86.7203 68.433 85.997 69.0529 85.1016 69.4834C84.2233 69.8967 83.2418 70.1033 82.1569 70.1033ZM99.7971 57.6789H94.5277V70H93.2361V57.6789H87.9667V56.5165H99.7971V57.6789ZM109.356 56.4132C110.613 56.4132 111.749 56.7059 112.765 57.2914C113.781 57.8769 114.573 58.6863 115.142 59.7195C115.727 60.7527 116.02 61.9323 116.02 63.2583C116.02 64.5842 115.727 65.7724 115.142 66.8229C114.573 67.8561 113.781 68.6654 112.765 69.2509C111.749 69.8192 110.613 70.1033 109.356 70.1033C108.168 70.1033 107.091 69.8278 106.127 69.2767C105.163 68.7085 104.414 67.925 103.88 66.9262V75.0111H102.588V56.5165H103.828V59.6937C104.362 58.6604 105.111 57.8597 106.075 57.2914C107.057 56.7059 108.15 56.4132 109.356 56.4132ZM109.278 68.941C110.311 68.941 111.241 68.6999 112.068 68.2177C112.895 67.7355 113.54 67.0639 114.005 66.2029C114.487 65.3419 114.728 64.3604 114.728 63.2583C114.728 62.1562 114.487 61.1746 114.005 60.3136C113.54 59.4526 112.895 58.781 112.068 58.2988C111.241 57.8166 110.311 57.5756 109.278 57.5756C108.245 57.5756 107.315 57.8166 106.489 58.2988C105.679 58.781 105.033 59.4526 104.551 60.3136C104.086 61.1746 103.854 62.1562 103.854 63.2583C103.854 64.3604 104.086 65.3419 104.551 66.2029C105.033 67.0639 105.679 67.7355 106.489 68.2177C107.315 68.6999 108.245 68.941 109.278 68.941ZM125.593 70.1033C124.318 70.1033 123.165 69.8106 122.131 69.2251C121.115 68.6396 120.315 67.8302 119.729 66.797C119.144 65.7466 118.851 64.567 118.851 63.2583C118.851 61.9495 119.144 60.7785 119.729 59.7453C120.315 58.6949 121.115 57.8769 122.131 57.2914C123.165 56.7059 124.318 56.4132 125.593 56.4132C126.867 56.4132 128.012 56.7059 129.028 57.2914C130.061 57.8769 130.871 58.6949 131.456 59.7453C132.042 60.7785 132.334 61.9495 132.334 63.2583C132.334 64.567 132.042 65.7466 131.456 66.797C130.871 67.8302 130.061 68.6396 129.028 69.2251C128.012 69.8106 126.867 70.1033 125.593 70.1033ZM125.593 68.941C126.626 68.941 127.547 68.6999 128.356 68.2177C129.183 67.7355 129.829 67.0639 130.294 66.2029C130.776 65.3419 131.017 64.3604 131.017 63.2583C131.017 62.1562 130.776 61.1746 130.294 60.3136C129.829 59.4526 129.183 58.781 128.356 58.2988C127.547 57.8166 126.626 57.5756 125.593 57.5756C124.559 57.5756 123.629 57.8166 122.803 58.2988C121.994 58.781 121.348 59.4526 120.866 60.3136C120.401 61.1746 120.168 62.1562 120.168 63.2583C120.168 64.3604 120.401 65.3419 120.866 66.2029C121.348 67.0639 121.994 67.7355 122.803 68.2177C123.629 68.6999 124.559 68.941 125.593 68.941ZM136.54 56.5165H137.832V68.0111L147.441 56.5165H148.577V70H147.286V58.5055L137.677 70H136.54V56.5165ZM142.507 54.4501C141.422 54.4501 140.544 54.1746 139.873 53.6235C139.201 53.0552 138.857 52.2717 138.839 51.2729H139.795C139.812 51.979 140.071 52.5386 140.57 52.9519C141.087 53.3652 141.732 53.5718 142.507 53.5718C143.282 53.5718 143.919 53.3652 144.419 52.9519C144.918 52.5386 145.176 51.979 145.194 51.2729H146.175C146.158 52.2717 145.814 53.0552 145.142 53.6235C144.47 54.1746 143.592 54.4501 142.507 54.4501ZM159.598 70.1033C158.289 70.1033 157.118 69.8106 156.085 69.2251C155.052 68.6396 154.242 67.8302 153.657 66.797C153.071 65.7466 152.779 64.567 152.779 63.2583C152.779 61.9323 153.071 60.7527 153.657 59.7195C154.242 58.669 155.052 57.8597 156.085 57.2914C157.118 56.7059 158.289 56.4132 159.598 56.4132C160.683 56.4132 161.664 56.6284 162.542 57.059C163.438 57.4722 164.161 58.0836 164.712 58.8929L163.756 59.5903C163.274 58.9187 162.672 58.4194 161.948 58.0922C161.242 57.7478 160.459 57.5756 159.598 57.5756C158.547 57.5756 157.6 57.8166 156.756 58.2988C155.93 58.7638 155.275 59.4267 154.793 60.2878C154.328 61.1488 154.096 62.1389 154.096 63.2583C154.096 64.3776 154.328 65.3677 154.793 66.2288C155.275 67.0898 155.93 67.7614 156.756 68.2435C157.6 68.7085 158.547 68.941 159.598 68.941C160.459 68.941 161.242 68.7774 161.948 68.4502C162.672 68.1058 163.274 67.5978 163.756 66.9262L164.712 67.6236C164.161 68.433 163.438 69.0529 162.542 69.4834C161.664 69.8967 160.683 70.1033 159.598 70.1033ZM177.238 57.6789H171.969V70H170.677V57.6789H165.408V56.5165H177.238V57.6789ZM187.985 63.0516C189.965 63.396 190.955 64.5067 190.955 66.3837C190.955 67.5547 190.525 68.4502 189.664 69.0701C188.82 69.69 187.546 70 185.841 70H180.003V56.5165H185.686C187.184 56.5165 188.355 56.8179 189.199 57.4206C190.06 58.0061 190.49 58.8499 190.49 59.952C190.49 60.7441 190.266 61.4071 189.819 61.9409C189.388 62.4575 188.777 62.8277 187.985 63.0516ZM181.269 62.6642H185.608C186.762 62.6642 187.649 62.4489 188.269 62.0184C188.889 61.5707 189.199 60.9335 189.199 60.1069C189.199 59.2631 188.889 58.6346 188.269 58.2213C187.666 57.7908 186.779 57.5756 185.608 57.5756H181.269V62.6642ZM185.815 68.941C188.381 68.941 189.664 68.0713 189.664 66.3321C189.664 65.4194 189.371 64.7478 188.786 64.3173C188.2 63.8868 187.279 63.6715 186.022 63.6715H181.269V68.941H185.815ZM200.01 56.4132C201.681 56.4132 202.964 56.8437 203.859 57.7047C204.755 58.5485 205.202 59.797 205.202 61.4501V70H203.963V67.5978C203.532 68.3899 202.903 69.0098 202.077 69.4576C201.25 69.8881 200.26 70.1033 199.106 70.1033C197.608 70.1033 196.42 69.7503 195.542 69.0443C194.681 68.3382 194.25 67.4083 194.25 66.2546C194.25 65.1353 194.646 64.2312 195.439 63.5424C196.248 62.8364 197.531 62.4833 199.287 62.4833H203.911V61.3985C203.911 60.1414 203.566 59.1857 202.878 58.5313C202.206 57.8769 201.216 57.5497 199.907 57.5497C199.012 57.5497 198.151 57.7047 197.324 58.0147C196.515 58.3246 195.826 58.7379 195.258 59.2545L194.612 58.3246C195.284 57.7219 196.093 57.257 197.04 56.9298C197.987 56.5854 198.977 56.4132 200.01 56.4132ZM199.287 69.0443C200.407 69.0443 201.354 68.786 202.129 68.2694C202.921 67.7528 203.515 67.0037 203.911 66.0221V63.4907H199.313C197.987 63.4907 197.023 63.7318 196.42 64.214C195.835 64.6962 195.542 65.3591 195.542 66.2029C195.542 67.0812 195.869 67.7786 196.523 68.2952C197.178 68.7946 198.099 69.0443 199.287 69.0443Z" fill="white"/>
<path d="M58.0073 234.118V235H48.786V234.31L54.4606 228.674C55.2019 227.932 55.7004 227.3 55.956 226.776C56.2244 226.239 56.3586 225.689 56.3586 225.127C56.3586 224.271 56.0646 223.6 55.4767 223.114C54.9016 222.628 54.0644 222.385 52.9653 222.385C52.1218 222.385 51.3805 222.513 50.7415 222.769C50.1152 223.024 49.572 223.414 49.1119 223.938L48.4218 223.325C48.933 222.737 49.5784 222.283 50.358 221.964C51.1504 221.644 52.0451 221.484 53.042 221.484C54.3584 221.484 55.4064 221.804 56.186 222.443C56.9657 223.082 57.3555 223.945 57.3555 225.031C57.3555 225.721 57.2021 226.379 56.8954 227.006C56.5886 227.632 56.0135 228.36 55.17 229.191L50.2238 234.118H58.0073ZM65.0348 235.096C64.0124 235.096 63.0985 234.821 62.2933 234.272C61.5009 233.709 60.8811 232.917 60.4338 231.894C59.9992 230.872 59.7819 229.67 59.7819 228.29C59.7819 226.91 59.9992 225.708 60.4338 224.686C60.8811 223.664 61.5009 222.878 62.2933 222.328C63.0985 221.766 64.0124 221.484 65.0348 221.484C66.0573 221.484 66.9647 221.766 67.7571 222.328C68.5623 222.878 69.1821 223.664 69.6167 224.686C70.064 225.708 70.2877 226.91 70.2877 228.29C70.2877 229.67 70.064 230.872 69.6167 231.894C69.1821 232.917 68.5623 233.709 67.7571 234.272C66.9647 234.821 66.0573 235.096 65.0348 235.096ZM65.0348 234.195C65.8783 234.195 66.6196 233.965 67.2586 233.505C67.9105 233.032 68.4153 232.354 68.7732 231.473C69.131 230.578 69.3099 229.517 69.3099 228.29C69.3099 227.063 69.131 226.009 68.7732 225.127C68.4153 224.232 67.9105 223.555 67.2586 223.095C66.6196 222.622 65.8783 222.385 65.0348 222.385C64.1913 222.385 63.4436 222.622 62.7918 223.095C62.1528 223.555 61.6543 224.232 61.2965 225.127C60.9386 226.009 60.7597 227.063 60.7597 228.29C60.7597 229.517 60.9386 230.578 61.2965 231.473C61.6543 232.354 62.1528 233.032 62.7918 233.505C63.4436 233.965 64.1913 234.195 65.0348 234.195ZM81.3345 234.118V235H72.1133V234.31L77.7879 228.674C78.5292 227.932 79.0276 227.3 79.2832 226.776C79.5516 226.239 79.6858 225.689 79.6858 225.127C79.6858 224.271 79.3919 223.6 78.8039 223.114C78.2288 222.628 77.3917 222.385 76.2925 222.385C75.449 222.385 74.7077 222.513 74.0687 222.769C73.4424 223.024 72.8993 223.414 72.4392 223.938L71.749 223.325C72.2602 222.737 72.9057 222.283 73.6853 221.964C74.4777 221.644 75.3723 221.484 76.3692 221.484C77.6856 221.484 78.7337 221.804 79.5133 222.443C80.2929 223.082 80.6827 223.945 80.6827 225.031C80.6827 225.721 80.5293 226.379 80.2226 227.006C79.9159 227.632 79.3407 228.36 78.4972 229.191L73.5511 234.118H81.3345ZM87.2675 227.427C88.7501 227.466 89.8748 227.83 90.6416 228.52C91.4212 229.198 91.811 230.099 91.811 231.223C91.811 231.977 91.6321 232.648 91.2742 233.236C90.9164 233.811 90.3796 234.265 89.6639 234.597C88.9609 234.93 88.111 235.096 87.1141 235.096C86.1428 235.096 85.229 234.936 84.3727 234.617C83.5164 234.284 82.8518 233.843 82.3789 233.294L82.8773 232.546C83.3119 233.032 83.8998 233.428 84.6411 233.735C85.3951 234.041 86.2195 234.195 87.1141 234.195C88.3027 234.195 89.2166 233.933 89.8556 233.409C90.4946 232.872 90.8141 232.144 90.8141 231.223C90.8141 230.29 90.4882 229.562 89.8364 229.038C89.1846 228.514 88.2069 228.252 86.9033 228.252H86.0597V227.542L90.0281 222.462H82.8773V221.58H91.2934V222.27L87.2675 227.427ZM104.856 224.916C105.789 224.916 106.633 225.133 107.387 225.568C108.141 226.002 108.729 226.603 109.15 227.37C109.585 228.137 109.802 229.012 109.802 229.996C109.802 230.98 109.585 231.862 109.15 232.642C108.729 233.409 108.141 234.009 107.387 234.444C106.633 234.866 105.789 235.077 104.856 235.077C103.974 235.077 103.175 234.872 102.46 234.463C101.744 234.041 101.188 233.46 100.792 232.719V238.719H99.8332V224.993H100.753V227.351C101.15 226.584 101.706 225.99 102.421 225.568C103.15 225.133 103.961 224.916 104.856 224.916ZM104.799 234.214C105.565 234.214 106.256 234.035 106.869 233.677C107.482 233.319 107.962 232.821 108.307 232.182C108.665 231.543 108.844 230.814 108.844 229.996C108.844 229.178 108.665 228.45 108.307 227.811C107.962 227.172 107.482 226.673 106.869 226.316C106.256 225.958 105.565 225.779 104.799 225.779C104.032 225.779 103.342 225.958 102.728 226.316C102.127 226.673 101.648 227.172 101.29 227.811C100.945 228.45 100.773 229.178 100.773 229.996C100.773 230.814 100.945 231.543 101.29 232.182C101.648 232.821 102.127 233.319 102.728 233.677C103.342 234.035 104.032 234.214 104.799 234.214ZM121.45 230.226H112.843C112.868 231.006 113.066 231.703 113.437 232.316C113.807 232.917 114.306 233.383 114.932 233.716C115.571 234.048 116.287 234.214 117.079 234.214C117.731 234.214 118.332 234.099 118.881 233.869C119.444 233.626 119.91 233.275 120.281 232.815L120.837 233.447C120.402 233.971 119.853 234.374 119.188 234.655C118.536 234.936 117.827 235.077 117.06 235.077C116.063 235.077 115.175 234.859 114.395 234.425C113.616 233.99 113.002 233.39 112.555 232.623C112.12 231.856 111.903 230.98 111.903 229.996C111.903 229.025 112.108 228.156 112.517 227.389C112.938 226.609 113.514 226.002 114.242 225.568C114.971 225.133 115.789 224.916 116.696 224.916C117.603 224.916 118.415 225.133 119.131 225.568C119.859 225.99 120.428 226.584 120.837 227.351C121.259 228.118 121.47 228.987 121.47 229.958L121.45 230.226ZM116.696 225.76C115.993 225.76 115.36 225.919 114.798 226.239C114.236 226.546 113.782 226.987 113.437 227.562C113.105 228.124 112.913 228.763 112.862 229.479H120.53C120.492 228.763 120.3 228.124 119.955 227.562C119.61 226.999 119.156 226.558 118.594 226.239C118.032 225.919 117.399 225.76 116.696 225.76ZM135.491 224.993V235H134.609V226.526L130.257 233.716H129.816L125.483 226.546V235H124.602V224.993H125.541L130.065 232.565L134.609 224.993H135.491ZM143.623 235.077C142.677 235.077 141.821 234.859 141.054 234.425C140.3 233.99 139.705 233.39 139.271 232.623C138.836 231.843 138.619 230.968 138.619 229.996C138.619 229.025 138.836 228.156 139.271 227.389C139.705 226.609 140.3 226.002 141.054 225.568C141.821 225.133 142.677 224.916 143.623 224.916C144.568 224.916 145.418 225.133 146.172 225.568C146.939 226.002 147.54 226.609 147.975 227.389C148.409 228.156 148.626 229.025 148.626 229.996C148.626 230.968 148.409 231.843 147.975 232.623C147.54 233.39 146.939 233.99 146.172 234.425C145.418 234.859 144.568 235.077 143.623 235.077ZM143.623 234.214C144.39 234.214 145.073 234.035 145.674 233.677C146.287 233.319 146.767 232.821 147.112 232.182C147.47 231.543 147.649 230.814 147.649 229.996C147.649 229.178 147.47 228.45 147.112 227.811C146.767 227.172 146.287 226.673 145.674 226.316C145.073 225.958 144.39 225.779 143.623 225.779C142.856 225.779 142.166 225.958 141.552 226.316C140.952 226.673 140.472 227.172 140.114 227.811C139.769 228.45 139.597 229.178 139.597 229.996C139.597 230.814 139.769 231.543 140.114 232.182C140.472 232.821 140.952 233.319 141.552 233.677C142.166 234.035 142.856 234.214 143.623 234.214ZM151.748 224.993H152.707V229.555H159.493V224.993H160.452V235H159.493V230.399H152.707V235H151.748V224.993ZM171.282 225.855H167.371V235H166.412V225.855H162.502V224.993H171.282V225.855ZM180.827 224.916C181.811 224.916 182.699 225.14 183.492 225.587C184.284 226.022 184.91 226.629 185.37 227.408C185.831 228.175 186.061 229.038 186.061 229.996C186.061 230.955 185.831 231.824 185.37 232.604C184.91 233.383 184.284 233.997 183.492 234.444C182.699 234.879 181.811 235.096 180.827 235.096C180.022 235.096 179.274 234.974 178.584 234.732C177.907 234.489 177.338 234.131 176.878 233.658L177.434 233.083C178.303 233.875 179.421 234.272 180.789 234.272C181.568 234.272 182.278 234.099 182.917 233.754C183.568 233.409 184.092 232.936 184.489 232.335C184.885 231.722 185.108 231.038 185.16 230.284H179.504V229.536H185.14C185.064 228.808 184.827 228.156 184.431 227.581C184.035 226.993 183.517 226.539 182.878 226.22C182.252 225.887 181.555 225.721 180.789 225.721C179.434 225.721 178.315 226.124 177.434 226.929L176.878 226.373C177.338 225.9 177.907 225.542 178.584 225.299C179.274 225.044 180.022 224.916 180.827 224.916ZM196.938 224.993V235H195.98V225.855H190.765L190.631 228.52C190.554 229.901 190.439 231.057 190.286 231.99C190.133 232.923 189.871 233.677 189.5 234.252C189.129 234.827 188.618 235.115 187.966 235.115C187.775 235.115 187.5 235.07 187.142 234.981L187.238 234.156C187.442 234.208 187.596 234.233 187.698 234.233C188.235 234.233 188.644 233.971 188.925 233.447C189.206 232.923 189.398 232.271 189.5 231.492C189.602 230.712 189.685 229.696 189.749 228.444L189.922 224.993H196.938ZM209.611 230.226H201.003C201.029 231.006 201.227 231.703 201.597 232.316C201.968 232.917 202.466 233.383 203.093 233.716C203.732 234.048 204.447 234.214 205.24 234.214C205.892 234.214 206.492 234.099 207.042 233.869C207.604 233.626 208.071 233.275 208.441 232.815L208.997 233.447C208.563 233.971 208.013 234.374 207.349 234.655C206.697 234.936 205.988 235.077 205.221 235.077C204.224 235.077 203.336 234.859 202.556 234.425C201.776 233.99 201.163 233.39 200.715 232.623C200.281 231.856 200.064 230.98 200.064 229.996C200.064 229.025 200.268 228.156 200.677 227.389C201.099 226.609 201.674 226.002 202.403 225.568C203.131 225.133 203.949 224.916 204.856 224.916C205.764 224.916 206.575 225.133 207.291 225.568C208.02 225.99 208.588 226.584 208.997 227.351C209.419 228.118 209.63 228.987 209.63 229.958L209.611 230.226ZM204.856 225.76C204.154 225.76 203.521 225.919 202.959 226.239C202.396 226.546 201.942 226.987 201.597 227.562C201.265 228.124 201.073 228.763 201.022 229.479H208.691C208.652 228.763 208.461 228.124 208.116 227.562C207.77 226.999 207.317 226.558 206.754 226.239C206.192 225.919 205.559 225.76 204.856 225.76ZM216.155 230.361H213.721V235H212.762V224.993H213.721V229.536H216.155L219.932 224.993H220.986L216.922 229.843L221.293 235H220.143L216.155 230.361ZM230.105 225.855H226.195V235H225.236V225.855H221.325V224.993H230.105V225.855ZM237.2 224.916C238.133 224.916 238.976 225.133 239.73 225.568C240.484 226.002 241.072 226.603 241.494 227.37C241.929 228.137 242.146 229.012 242.146 229.996C242.146 230.98 241.929 231.862 241.494 232.642C241.072 233.409 240.484 234.009 239.73 234.444C238.976 234.866 238.133 235.077 237.2 235.077C236.318 235.077 235.519 234.872 234.803 234.463C234.088 234.041 233.532 233.46 233.136 232.719V238.719H232.177V224.993H233.097V227.351C233.493 226.584 234.049 225.99 234.765 225.568C235.494 225.133 236.305 224.916 237.2 224.916ZM237.142 234.214C237.909 234.214 238.599 234.035 239.213 233.677C239.826 233.319 240.305 232.821 240.651 232.182C241.008 231.543 241.187 230.814 241.187 229.996C241.187 229.178 241.008 228.45 240.651 227.811C240.305 227.172 239.826 226.673 239.213 226.316C238.599 225.958 237.909 225.779 237.142 225.779C236.375 225.779 235.685 225.958 235.072 226.316C234.471 226.673 233.992 227.172 233.634 227.811C233.289 228.45 233.116 229.178 233.116 229.996C233.116 230.814 233.289 231.543 233.634 232.182C233.992 232.821 234.471 233.319 235.072 233.677C235.685 234.035 236.375 234.214 237.142 234.214ZM249.251 235.077C248.305 235.077 247.448 234.859 246.682 234.425C245.928 233.99 245.333 233.39 244.899 232.623C244.464 231.843 244.247 230.968 244.247 229.996C244.247 229.025 244.464 228.156 244.899 227.389C245.333 226.609 245.928 226.002 246.682 225.568C247.448 225.133 248.305 224.916 249.251 224.916C250.196 224.916 251.046 225.133 251.8 225.568C252.567 226.002 253.168 226.609 253.602 227.389C254.037 228.156 254.254 229.025 254.254 229.996C254.254 230.968 254.037 231.843 253.602 232.623C253.168 233.39 252.567 233.99 251.8 234.425C251.046 234.859 250.196 235.077 249.251 235.077ZM249.251 234.214C250.017 234.214 250.701 234.035 251.302 233.677C251.915 233.319 252.395 232.821 252.74 232.182C253.098 231.543 253.276 230.814 253.276 229.996C253.276 229.178 253.098 228.45 252.74 227.811C252.395 227.172 251.915 226.673 251.302 226.316C250.701 225.958 250.017 225.779 249.251 225.779C248.484 225.779 247.794 225.958 247.18 226.316C246.579 226.673 246.1 227.172 245.742 227.811C245.397 228.45 245.225 229.178 245.225 229.996C245.225 230.814 245.397 231.543 245.742 232.182C246.1 232.821 246.579 233.319 247.18 233.677C247.794 234.035 248.484 234.214 249.251 234.214ZM263.692 225.855H259.781V235H258.823V225.855H254.912V224.993H263.692V225.855ZM273.808 230.226H265.2C265.225 231.006 265.423 231.703 265.794 232.316C266.165 232.917 266.663 233.383 267.289 233.716C267.928 234.048 268.644 234.214 269.437 234.214C270.088 234.214 270.689 234.099 271.239 233.869C271.801 233.626 272.268 233.275 272.638 232.815L273.194 233.447C272.76 233.971 272.21 234.374 271.545 234.655C270.894 234.936 270.184 235.077 269.417 235.077C268.421 235.077 267.532 234.859 266.753 234.425C265.973 233.99 265.36 233.39 264.912 232.623C264.478 231.856 264.26 230.98 264.26 229.996C264.26 229.025 264.465 228.156 264.874 227.389C265.296 226.609 265.871 226.002 266.599 225.568C267.328 225.133 268.146 224.916 269.053 224.916C269.961 224.916 270.772 225.133 271.488 225.568C272.216 225.99 272.785 226.584 273.194 227.351C273.616 228.118 273.827 228.987 273.827 229.958L273.808 230.226ZM269.053 225.76C268.35 225.76 267.718 225.919 267.155 226.239C266.593 226.546 266.139 226.987 265.794 227.562C265.462 228.124 265.27 228.763 265.219 229.479H272.887C272.849 228.763 272.657 228.124 272.312 227.562C271.967 226.999 271.513 226.558 270.951 226.239C270.389 225.919 269.756 225.76 269.053 225.76ZM282.947 235L279.515 230.533L276.084 235H274.991L278.959 229.843L275.202 224.993H276.295L279.515 229.153L282.736 224.993H283.81L280.052 229.843L284.078 235H282.947ZM286.507 224.993H287.465V229.555H294.252V224.993H295.211V235H294.252V230.399H287.465V235H286.507V224.993ZM299.35 224.993H300.309V233.524L307.44 224.993H308.284V235H307.325V226.469L300.194 235H299.35V224.993ZM315.811 230.361H313.376V235H312.418V224.993H313.376V229.536H315.811L319.588 224.993H320.642L316.578 229.843L320.949 235H319.799L315.811 230.361ZM323.314 224.993H324.272V233.524L331.404 224.993H332.247V235H331.289V226.469L324.157 235H323.314V224.993ZM343.798 235.077C342.992 235.077 342.226 234.955 341.497 234.712C340.769 234.47 340.2 234.163 339.791 233.792L340.232 233.025C340.641 233.37 341.165 233.658 341.804 233.888C342.456 234.118 343.133 234.233 343.836 234.233C344.846 234.233 345.587 234.067 346.06 233.735C346.545 233.402 346.788 232.942 346.788 232.354C346.788 231.933 346.654 231.6 346.386 231.358C346.13 231.115 345.811 230.936 345.427 230.821C345.044 230.706 344.513 230.584 343.836 230.456C343.044 230.316 342.404 230.163 341.919 229.996C341.433 229.83 341.018 229.562 340.673 229.191C340.328 228.821 340.155 228.309 340.155 227.657C340.155 226.865 340.481 226.213 341.133 225.702C341.797 225.178 342.737 224.916 343.951 224.916C344.59 224.916 345.223 225.006 345.849 225.184C346.475 225.363 346.986 225.6 347.383 225.894L346.942 226.661C346.533 226.367 346.066 226.143 345.542 225.99C345.018 225.836 344.481 225.76 343.932 225.76C342.999 225.76 342.296 225.932 341.823 226.277C341.35 226.622 341.114 227.076 341.114 227.638C341.114 228.086 341.248 228.437 341.516 228.693C341.785 228.936 342.111 229.121 342.494 229.249C342.89 229.364 343.44 229.492 344.143 229.632C344.922 229.773 345.549 229.926 346.021 230.092C346.507 230.246 346.916 230.501 347.248 230.859C347.581 231.217 347.747 231.709 347.747 232.335C347.747 233.166 347.402 233.831 346.712 234.329C346.021 234.827 345.05 235.077 343.798 235.077ZM362.883 224.916C364.123 224.916 365.094 225.28 365.797 226.009C366.513 226.737 366.871 227.785 366.871 229.153V235H365.912V229.23C365.912 228.105 365.637 227.249 365.088 226.661C364.538 226.073 363.771 225.779 362.787 225.779C361.663 225.779 360.768 226.13 360.103 226.833C359.451 227.536 359.126 228.482 359.126 229.67V235H358.167V229.23C358.167 228.105 357.892 227.249 357.343 226.661C356.793 226.073 356.026 225.779 355.042 225.779C353.917 225.779 353.023 226.13 352.358 226.833C351.706 227.536 351.38 228.482 351.38 229.67V235H350.422V224.993H351.342V227.14C351.674 226.437 352.166 225.894 352.818 225.51C353.483 225.114 354.269 224.916 355.176 224.916C356.084 224.916 356.851 225.121 357.477 225.53C358.116 225.938 358.57 226.539 358.838 227.332C359.17 226.59 359.688 226.002 360.391 225.568C361.107 225.133 361.937 224.916 362.883 224.916ZM374.203 224.916C375.442 224.916 376.395 225.236 377.059 225.875C377.724 226.501 378.056 227.427 378.056 228.654V235H377.136V233.217C376.816 233.805 376.35 234.265 375.736 234.597C375.123 234.917 374.388 235.077 373.532 235.077C372.42 235.077 371.538 234.815 370.886 234.291C370.247 233.767 369.928 233.077 369.928 232.22C369.928 231.389 370.221 230.718 370.809 230.207C371.41 229.683 372.362 229.421 373.666 229.421H377.097V228.616C377.097 227.683 376.842 226.974 376.331 226.488C375.832 226.002 375.097 225.76 374.126 225.76C373.461 225.76 372.822 225.875 372.209 226.105C371.608 226.335 371.097 226.641 370.675 227.025L370.196 226.335C370.694 225.887 371.295 225.542 371.998 225.299C372.701 225.044 373.436 224.916 374.203 224.916ZM373.666 234.291C374.497 234.291 375.2 234.099 375.775 233.716C376.363 233.332 376.804 232.776 377.097 232.048V230.169H373.685C372.701 230.169 371.985 230.348 371.538 230.706C371.103 231.064 370.886 231.556 370.886 232.182C370.886 232.834 371.129 233.351 371.615 233.735C372.1 234.105 372.784 234.291 373.666 234.291ZM382.926 227.178C383.232 226.45 383.712 225.894 384.363 225.51C385.015 225.114 385.808 224.916 386.741 224.916V225.855L386.511 225.836C385.399 225.836 384.53 226.188 383.903 226.891C383.277 227.581 382.964 228.546 382.964 229.785V235H382.005V224.993H382.926V227.178ZM394.796 234.367C394.554 234.597 394.247 234.776 393.876 234.904C393.518 235.019 393.141 235.077 392.745 235.077C391.876 235.077 391.205 234.84 390.732 234.367C390.259 233.882 390.023 233.211 390.023 232.354V225.817H388.182V224.993H390.023V222.807H390.981V224.993H394.164V225.817H390.981V232.259C390.981 232.91 391.135 233.409 391.441 233.754C391.761 234.086 392.227 234.252 392.841 234.252C393.467 234.252 393.985 234.067 394.394 233.696L394.796 234.367ZM398.754 222.462V228.194H405.905V229.076H398.754V235H397.776V221.58H406.748V222.462H398.754ZM409.377 224.993H410.335V235H409.377V224.993ZM409.856 222.558C409.639 222.558 409.453 222.488 409.3 222.347C409.146 222.194 409.07 222.008 409.07 221.791C409.07 221.574 409.146 221.389 409.3 221.235C409.453 221.082 409.639 221.005 409.856 221.005C410.073 221.005 410.258 221.082 410.412 221.235C410.565 221.376 410.642 221.555 410.642 221.772C410.642 221.989 410.565 222.175 410.412 222.328C410.258 222.481 410.073 222.558 409.856 222.558ZM420.74 235L417.308 230.533L413.877 235H412.784L416.752 229.843L412.995 224.993H414.088L417.308 229.153L420.529 224.993H421.603L417.845 229.843L421.871 235H420.74Z" fill="white"/>
<path d="M448.365 60.6916H444.161V69H442.885V51.4823H444.161V59.5404H448.39L454.672 51.4823H456.098L449.391 60.0159L456.548 69H455.047L448.365 60.6916ZM464.282 69.1001C463.048 69.1001 461.93 68.8165 460.929 68.2492C459.945 67.682 459.169 66.8979 458.602 65.8969C458.034 64.8792 457.751 63.7363 457.751 62.4684C457.751 61.2004 458.034 60.066 458.602 59.0649C459.169 58.0473 459.945 57.2548 460.929 56.6875C461.93 56.1203 463.048 55.8367 464.282 55.8367C465.517 55.8367 466.626 56.1203 467.611 56.6875C468.612 57.2548 469.396 58.0473 469.963 59.0649C470.53 60.066 470.814 61.2004 470.814 62.4684C470.814 63.7363 470.53 64.8792 469.963 65.8969C469.396 66.8979 468.612 67.682 467.611 68.2492C466.626 68.8165 465.517 69.1001 464.282 69.1001ZM464.282 67.974C465.283 67.974 466.176 67.7404 466.96 67.2733C467.761 66.8061 468.386 66.1555 468.837 65.3213C469.304 64.4871 469.538 63.5361 469.538 62.4684C469.538 61.4006 469.304 60.4497 468.837 59.6155C468.386 58.7813 467.761 58.1307 466.96 57.6635C466.176 57.1964 465.283 56.9628 464.282 56.9628C463.281 56.9628 462.38 57.1964 461.58 57.6635C460.795 58.1307 460.17 58.7813 459.703 59.6155C459.252 60.4497 459.027 61.4006 459.027 62.4684C459.027 63.5361 459.252 64.4871 459.703 65.3213C460.17 66.1555 460.795 66.8061 461.58 67.2733C462.38 67.7404 463.281 67.974 464.282 67.974ZM474.889 55.9368H476.14V61.8928H484.999V55.9368H486.25V69H484.999V62.9939H476.14V69H474.889V55.9368ZM500.388 57.0629H495.283V69H494.031V57.0629H488.926V55.9368H500.388V57.0629ZM507.396 55.8367C509.014 55.8367 510.257 56.2538 511.125 57.0879C511.993 57.9054 512.426 59.115 512.426 60.7166V69H511.225V66.6726C510.808 67.4401 510.199 68.0407 509.398 68.4745C508.597 68.8916 507.638 69.1001 506.52 69.1001C505.069 69.1001 503.918 68.7581 503.067 68.0741C502.233 67.39 501.816 66.4891 501.816 65.3713C501.816 64.2869 502.199 63.411 502.967 62.7437C503.751 62.0596 504.994 61.7176 506.695 61.7176H511.175V60.6666C511.175 59.4487 510.841 58.5227 510.174 57.8888C509.523 57.2548 508.564 56.9378 507.296 56.9378C506.429 56.9378 505.594 57.0879 504.794 57.3883C504.009 57.6886 503.342 58.089 502.792 58.5895L502.166 57.6886C502.817 57.1046 503.601 56.6542 504.518 56.3372C505.436 56.0035 506.395 55.8367 507.396 55.8367ZM506.695 68.0741C507.78 68.0741 508.698 67.8238 509.448 67.3233C510.216 66.8228 510.791 66.0971 511.175 65.1461V62.6936H506.721C505.436 62.6936 504.502 62.9272 503.918 63.3943C503.35 63.8615 503.067 64.5038 503.067 65.3213C503.067 66.1721 503.384 66.8478 504.018 67.3483C504.652 67.8322 505.544 68.0741 506.695 68.0741ZM521.94 62.9439H518.761V69H517.51V55.9368H518.761V61.8678H521.94L526.87 55.9368H528.246L522.941 62.2682L528.646 69H527.145L521.94 62.9439ZM540.15 57.0629H535.044V69H533.793V57.0629H528.688V55.9368H540.15V57.0629ZM547.984 60.6916C549.602 60.7083 550.837 61.067 551.688 61.7677C552.539 62.4517 552.964 63.4611 552.964 64.7957C552.964 66.1805 552.514 67.2399 551.613 67.974C550.712 68.708 549.41 69.0667 547.709 69.0501L542.829 69V55.9368H544.08V60.6415L547.984 60.6916ZM555.366 55.9368H556.618V69H555.366V55.9368ZM547.659 68.049C548.993 68.0657 550.003 67.7988 550.687 67.2482C551.371 66.6977 551.713 65.8802 551.713 64.7957C551.713 63.7447 551.379 62.9689 550.712 62.4684C550.044 61.9512 549.027 61.6759 547.659 61.6426L544.08 61.6175V67.999L547.659 68.049Z" fill="white"/>
<path d="M268.207 53.4677H258.647V69.8342H257.371V52.3165H268.207V53.4677ZM275.473 56.6709C277.092 56.6709 278.334 57.088 279.202 57.9222C280.07 58.7397 280.503 59.9492 280.503 61.5508V69.8342H279.302V67.5069C278.885 68.2743 278.276 68.8749 277.475 69.3087C276.674 69.7258 275.715 69.9343 274.597 69.9343C273.146 69.9343 271.995 69.5923 271.144 68.9083C270.31 68.2243 269.893 67.3234 269.893 66.2056C269.893 65.1211 270.276 64.2452 271.044 63.5779C271.828 62.8939 273.071 62.5519 274.773 62.5519H279.252V61.5008C279.252 60.2829 278.918 59.357 278.251 58.723C277.6 58.089 276.641 57.772 275.373 57.772C274.506 57.772 273.671 57.9222 272.871 58.2225C272.087 58.5228 271.419 58.9232 270.869 59.4237L270.243 58.5228C270.894 57.9389 271.678 57.4884 272.595 57.1714C273.513 56.8377 274.472 56.6709 275.473 56.6709ZM274.773 68.9083C275.857 68.9083 276.775 68.658 277.525 68.1575C278.293 67.657 278.868 66.9313 279.252 65.9803V63.5278H274.798C273.513 63.5278 272.579 63.7614 271.995 64.2286C271.428 64.6957 271.144 65.338 271.144 66.1555C271.144 67.0064 271.461 67.6821 272.095 68.1826C272.729 68.6664 273.621 68.9083 274.773 68.9083ZM292.169 56.6709C293.387 56.6709 294.488 56.9545 295.472 57.5218C296.457 58.089 297.224 58.8731 297.775 59.8742C298.342 60.8752 298.625 62.018 298.625 63.3026C298.625 64.5873 298.342 65.7384 297.775 66.7561C297.224 67.7571 296.457 68.5413 295.472 69.1085C294.488 69.6591 293.387 69.9343 292.169 69.9343C291.018 69.9343 289.975 69.6674 289.041 69.1335C288.106 68.583 287.381 67.8239 286.863 66.8562V74.6891H285.612V56.771H286.813V59.8491C287.331 58.8481 288.056 58.0723 288.991 57.5218C289.942 56.9545 291.001 56.6709 292.169 56.6709ZM292.094 68.8082C293.095 68.8082 293.996 68.5746 294.797 68.1075C295.597 67.6403 296.223 66.9897 296.673 66.1555C297.141 65.3213 297.374 64.3704 297.374 63.3026C297.374 62.2349 297.141 61.2839 296.673 60.4497C296.223 59.6156 295.597 58.9649 294.797 58.4978C293.996 58.0306 293.095 57.7971 292.094 57.7971C291.093 57.7971 290.192 58.0306 289.391 58.4978C288.607 58.9649 287.981 59.6156 287.514 60.4497C287.064 61.2839 286.838 62.2349 286.838 63.3026C286.838 64.3704 287.064 65.3213 287.514 66.1555C287.981 66.9897 288.607 67.6403 289.391 68.1075C290.192 68.5746 291.093 68.8082 292.094 68.8082ZM306.975 56.6709C308.593 56.6709 309.836 57.088 310.704 57.9222C311.571 58.7397 312.005 59.9492 312.005 61.5508V69.8342H310.804V67.5069C310.387 68.2743 309.778 68.8749 308.977 69.3087C308.176 69.7258 307.217 69.9343 306.099 69.9343C304.648 69.9343 303.496 69.5923 302.645 68.9083C301.811 68.2243 301.394 67.3234 301.394 66.2056C301.394 65.1211 301.778 64.2452 302.545 63.5779C303.33 62.8939 304.572 62.5519 306.274 62.5519H310.754V61.5008C310.754 60.2829 310.42 59.357 309.753 58.723C309.102 58.089 308.143 57.772 306.875 57.772C306.007 57.772 305.173 57.9222 304.372 58.2225C303.588 58.5228 302.921 58.9232 302.37 59.4237L301.745 58.5228C302.395 57.9389 303.179 57.4884 304.097 57.1714C305.015 56.8377 305.974 56.6709 306.975 56.6709ZM306.274 68.9083C307.359 68.9083 308.276 68.658 309.027 68.1575C309.794 67.657 310.37 66.9313 310.754 65.9803V63.5278H306.299C305.015 63.5278 304.08 63.7614 303.496 64.2286C302.929 64.6957 302.645 65.338 302.645 66.1555C302.645 67.0064 302.962 67.6821 303.596 68.1826C304.23 68.6664 305.123 68.9083 306.274 68.9083ZM317.089 56.771H318.34V62.727H327.199V56.771H328.45V69.8342H327.199V63.8282H318.34V69.8342H317.089V56.771ZM342.588 57.8972H337.482V69.8342H336.231V57.8972H331.126V56.771H342.588V57.8972ZM345.267 56.771H346.518V67.9073L355.827 56.771H356.929V69.8342H355.677V58.698L346.368 69.8342H345.267V56.771ZM371.96 56.771V69.8342H370.809V65.3297H366.454C366.154 65.3297 365.937 65.3213 365.804 65.3046L362.575 69.8342H361.199L364.577 65.1545C363.51 64.9209 362.692 64.4621 362.125 63.7781C361.558 63.0941 361.274 62.2098 361.274 61.1254C361.274 59.6906 361.749 58.6062 362.7 57.8721C363.668 57.1381 364.986 56.771 366.654 56.771H371.96ZM362.525 61.1755C362.525 63.311 363.877 64.3787 366.579 64.3787H370.809V57.8721H366.729C363.927 57.8721 362.525 58.9732 362.525 61.1755Z" fill="white"/>
<path d="M621.72 69.1251C620.002 69.1251 618.45 68.7414 617.066 67.974C615.681 67.1898 614.588 66.1221 613.787 64.7707C613.003 63.4194 612.611 61.9095 612.611 60.2411C612.611 58.5728 613.003 57.0629 613.787 55.7116C614.588 54.3602 615.681 53.3008 617.066 52.5333C618.45 51.7492 620.002 51.3572 621.72 51.3572C623.439 51.3572 624.99 51.7409 626.375 52.5083C627.76 53.2758 628.844 54.3352 629.628 55.6865C630.429 57.0379 630.83 58.5561 630.83 60.2411C630.83 61.9262 630.429 63.4444 629.628 64.7957C628.844 66.1471 627.76 67.2065 626.375 67.974C624.99 68.7414 623.439 69.1251 621.72 69.1251ZM621.72 67.9489C623.189 67.9489 624.515 67.6153 625.699 66.9479C626.884 66.2806 627.818 65.363 628.502 64.1951C629.186 63.0106 629.528 61.6926 629.528 60.2411C629.528 58.7897 629.186 57.48 628.502 56.3122C627.818 55.1276 626.884 54.2017 625.699 53.5344C624.515 52.867 623.189 52.5333 621.72 52.5333C620.252 52.5333 618.918 52.867 617.716 53.5344C616.532 54.2017 615.597 55.1276 614.913 56.3122C614.229 57.48 613.887 58.7897 613.887 60.2411C613.887 61.6926 614.229 63.0106 614.913 64.1951C615.597 65.363 616.532 66.2806 617.716 66.9479C618.918 67.6153 620.252 67.9489 621.72 67.9489ZM643.416 57.0629H638.311V69H637.059V57.0629H631.954V55.9368H643.416V57.0629ZM651.46 62.1931C652.428 62.3766 653.17 62.7437 653.687 63.2942C654.221 63.8281 654.488 64.4871 654.488 65.2712C654.488 66.0387 654.23 66.7144 653.712 67.2983C653.212 67.8822 652.528 68.3327 651.66 68.6496C650.793 68.9666 649.85 69.1251 648.833 69.1251C647.898 69.1251 646.981 68.9833 646.08 68.6997C645.196 68.3994 644.42 67.974 643.752 67.4234L644.253 66.4975C644.837 66.998 645.529 67.3817 646.33 67.6486C647.148 67.9156 647.973 68.049 648.808 68.049C650.042 68.049 651.085 67.7904 651.936 67.2733C652.787 66.7394 653.212 66.0387 653.212 65.1711C653.212 64.4037 652.853 63.8031 652.136 63.3693C651.435 62.9188 650.484 62.6936 649.283 62.6936H647.181V61.7427H649.233C650.284 61.7427 651.143 61.5341 651.811 61.117C652.495 60.6999 652.837 60.141 652.837 59.4403C652.837 58.6228 652.461 57.9972 651.71 57.5634C650.976 57.113 650.034 56.8877 648.883 56.8877C647.414 56.8877 646.03 57.2631 644.728 58.0139L644.353 57.0129C645.821 56.1954 647.381 55.7866 649.033 55.7866C650.484 55.7866 651.694 56.1036 652.661 56.7376C653.629 57.3549 654.113 58.1974 654.113 59.2652C654.113 59.9492 653.871 60.5498 653.387 61.067C652.903 61.5842 652.261 61.9595 651.46 62.1931ZM664.007 60.6916C665.625 60.7083 666.86 61.067 667.711 61.7677C668.562 62.4517 668.987 63.4611 668.987 64.7957C668.987 66.1805 668.537 67.2399 667.636 67.974C666.735 68.708 665.434 69.0667 663.732 69.0501L658.852 69V55.9368H660.103V60.6415L664.007 60.6916ZM671.39 55.9368H672.641V69H671.39V55.9368ZM663.682 68.049C665.016 68.0657 666.026 67.7988 666.71 67.2482C667.394 66.6977 667.736 65.8802 667.736 64.7957C667.736 63.7447 667.402 62.9689 666.735 62.4684C666.067 61.9512 665.05 61.6759 663.682 61.6426L660.103 61.6175V67.999L663.682 68.049ZM685.745 62.2682C687.663 62.6019 688.623 63.6779 688.623 65.4965C688.623 66.6309 688.206 67.4985 687.371 68.0991C686.554 68.6997 685.319 69 683.668 69H678.012V55.9368H683.517C684.969 55.9368 686.103 56.2287 686.921 56.8127C687.755 57.3799 688.172 58.1974 688.172 59.2652C688.172 60.0326 687.955 60.6749 687.521 61.1921C687.104 61.6926 686.512 62.0513 685.745 62.2682ZM679.238 61.8928H683.442C684.56 61.8928 685.419 61.6843 686.02 61.2672C686.621 60.8334 686.921 60.2161 686.921 59.4153C686.921 58.5978 686.621 57.9889 686.02 57.5885C685.436 57.1714 684.577 56.9628 683.442 56.9628H679.238V61.8928ZM683.643 67.974C686.128 67.974 687.371 67.1314 687.371 65.4464C687.371 64.5622 687.088 63.9115 686.52 63.4944C685.953 63.0773 685.061 62.8688 683.843 62.8688H679.238V67.974H683.643ZM698.221 60.6916C699.84 60.7083 701.074 61.067 701.925 61.7677C702.776 62.4517 703.201 63.4611 703.201 64.7957C703.201 66.1805 702.751 67.2399 701.85 67.974C700.949 68.708 699.648 69.0667 697.946 69.0501L693.066 69V55.9368H694.317V60.6415L698.221 60.6916ZM705.604 55.9368H706.855V69H705.604V55.9368ZM697.896 68.049C699.231 68.0657 700.24 67.7988 700.924 67.2482C701.608 66.6977 701.95 65.8802 701.95 64.7957C701.95 63.7447 701.616 62.9689 700.949 62.4684C700.282 61.9512 699.264 61.6759 697.896 61.6426L694.317 61.6175V67.999L697.896 68.049Z" fill="white"/>
<path d="M59.7904 202.31C58.0103 202.31 56.2948 202.103 54.6437 201.69C53.0184 201.252 51.7285 200.71 50.7739 200.065L52.7862 195.731C53.7407 196.324 54.863 196.815 56.1529 197.202C57.4686 197.563 58.7585 197.743 60.0226 197.743C61.4157 197.743 62.396 197.576 62.9636 197.24C63.5569 196.905 63.8536 196.44 63.8536 195.847C63.8536 195.357 63.6214 194.996 63.1571 194.764C62.7185 194.506 62.1251 194.312 61.377 194.183C60.6288 194.054 59.8033 193.925 58.9004 193.796C58.0232 193.667 57.1332 193.5 56.2303 193.293C55.3273 193.061 54.5018 192.726 53.7536 192.287C53.0055 191.848 52.3992 191.255 51.9349 190.507C51.4963 189.759 51.277 188.791 51.277 187.605C51.277 186.289 51.6511 185.128 52.3992 184.122C53.1732 183.116 54.2825 182.329 55.7272 181.761C57.1719 181.168 58.9004 180.871 60.9126 180.871C62.3315 180.871 63.7762 181.026 65.2467 181.336C66.7172 181.645 67.9426 182.097 68.923 182.69L66.9107 186.985C65.9046 186.392 64.8855 185.992 63.8536 185.786C62.8475 185.554 61.8672 185.438 60.9126 185.438C59.5711 185.438 58.5908 185.618 57.9716 185.979C57.3525 186.341 57.0429 186.805 57.0429 187.372C57.0429 187.888 57.2622 188.275 57.7008 188.533C58.1651 188.791 58.7714 188.998 59.5195 189.153C60.2677 189.307 61.0803 189.449 61.9575 189.578C62.8604 189.681 63.7633 189.849 64.6663 190.081C65.5692 190.313 66.3818 190.649 67.1042 191.087C67.8523 191.5 68.4586 192.081 68.923 192.829C69.3873 193.551 69.6195 194.506 69.6195 195.692C69.6195 196.982 69.2325 198.13 68.4586 199.136C67.6846 200.117 66.5624 200.891 65.0919 201.458C63.6472 202.026 61.8801 202.31 59.7904 202.31ZM100.007 180.871C101.658 180.871 103.115 181.207 104.379 181.877C105.669 182.522 106.675 183.529 107.398 184.896C108.146 186.237 108.52 187.966 108.52 190.081V202H102.483V191.01C102.483 189.333 102.135 188.095 101.438 187.295C100.742 186.495 99.7614 186.095 98.4973 186.095C97.6202 186.095 96.8334 186.302 96.1368 186.715C95.4403 187.102 94.8985 187.695 94.5115 188.495C94.1245 189.294 93.9311 190.313 93.9311 191.552V202H87.8943V191.01C87.8943 189.333 87.546 188.095 86.8495 187.295C86.1787 186.495 85.2113 186.095 83.9472 186.095C83.07 186.095 82.2832 186.302 81.5866 186.715C80.8901 187.102 80.3483 187.695 79.9614 188.495C79.5744 189.294 79.3809 190.313 79.3809 191.552V202H73.3441V181.181H79.11V186.869L78.0265 185.205C78.7488 183.786 79.7679 182.716 81.0836 181.994C82.4251 181.245 83.9472 180.871 85.6498 180.871C87.5589 180.871 89.2229 181.361 90.6418 182.342C92.0865 183.296 93.041 184.767 93.5054 186.753L91.377 186.173C92.0736 184.548 93.1829 183.258 94.705 182.303C96.2529 181.349 98.0201 180.871 100.007 180.871ZM126.701 202V197.937L126.314 197.047V189.772C126.314 188.482 125.914 187.476 125.114 186.753C124.34 186.031 123.141 185.67 121.516 185.67C120.406 185.67 119.31 185.85 118.226 186.212C117.169 186.547 116.266 187.011 115.517 187.605L113.35 183.387C114.486 182.587 115.853 181.968 117.452 181.529C119.052 181.091 120.677 180.871 122.328 180.871C125.501 180.871 127.965 181.619 129.719 183.116C131.474 184.612 132.351 186.947 132.351 190.12V202H126.701ZM120.355 202.31C118.729 202.31 117.336 202.039 116.175 201.497C115.014 200.929 114.124 200.168 113.505 199.214C112.886 198.259 112.576 197.189 112.576 196.002C112.576 194.764 112.873 193.68 113.467 192.751C114.086 191.823 115.053 191.1 116.369 190.584C117.685 190.043 119.4 189.772 121.516 189.772H127.049V193.293H122.173C120.755 193.293 119.774 193.525 119.232 193.99C118.716 194.454 118.458 195.034 118.458 195.731C118.458 196.505 118.755 197.124 119.349 197.589C119.968 198.027 120.806 198.246 121.864 198.246C122.87 198.246 123.773 198.014 124.573 197.55C125.372 197.06 125.953 196.35 126.314 195.421L127.243 198.208C126.804 199.549 126.004 200.568 124.844 201.265C123.683 201.961 122.186 202.31 120.355 202.31ZM137.814 202V181.181H143.58V187.063L142.768 185.36C143.387 183.89 144.38 182.78 145.747 182.032C147.115 181.258 148.779 180.871 150.739 180.871V186.444C150.481 186.418 150.249 186.405 150.043 186.405C149.836 186.379 149.617 186.366 149.385 186.366C147.734 186.366 146.392 186.844 145.36 187.798C144.354 188.727 143.851 190.184 143.851 192.171V202H137.814ZM163.56 202.31C161.109 202.31 159.2 201.69 157.833 200.452C156.466 199.188 155.782 197.318 155.782 194.841V176.576H161.819V194.764C161.819 195.641 162.051 196.324 162.515 196.815C162.98 197.279 163.612 197.511 164.411 197.511C165.366 197.511 166.179 197.253 166.849 196.737L168.475 200.994C167.856 201.432 167.107 201.768 166.23 202C165.379 202.206 164.489 202.31 163.56 202.31ZM152.57 186.289V181.645H167.004V186.289H152.57ZM178.094 187.102H191.096V192.132H178.094V187.102ZM178.558 202H172.289V174.912H192.76V179.943H178.558V202ZM196.578 202V181.181H202.615V202H196.578ZM199.597 178.279C198.487 178.279 197.584 177.956 196.888 177.311C196.191 176.666 195.843 175.866 195.843 174.912C195.843 173.957 196.191 173.158 196.888 172.513C197.584 171.868 198.487 171.545 199.597 171.545C200.706 171.545 201.609 171.855 202.305 172.474C203.002 173.067 203.35 173.841 203.35 174.796C203.35 175.802 203.002 176.64 202.305 177.311C201.635 177.956 200.732 178.279 199.597 178.279ZM205.586 202L214.912 189.772L214.796 193.1L205.857 181.181H212.629L218.279 188.959L215.725 189.036L221.568 181.181H227.992L219.014 192.984V189.733L228.302 202H221.452L215.531 193.719L218.047 194.067L212.165 202H205.586Z" fill="#C44164"/>
<rect x="793.371" y="187.371" width="232.258" height="49.7166" rx="7.7914" stroke="white" stroke-width="0.742038"/>
<path d="M829.664 214.33H819.669C819.699 215.235 819.929 216.044 820.359 216.756C820.789 217.454 821.368 217.995 822.095 218.381C822.837 218.767 823.668 218.96 824.589 218.96C825.345 218.96 826.043 218.826 826.681 218.559C827.334 218.277 827.876 217.869 828.306 217.335L828.952 218.069C828.447 218.678 827.809 219.145 827.037 219.472C826.28 219.798 825.457 219.962 824.566 219.962C823.409 219.962 822.377 219.709 821.472 219.205C820.567 218.7 819.854 218.003 819.335 217.112C818.83 216.222 818.578 215.205 818.578 214.062C818.578 212.935 818.816 211.925 819.29 211.035C819.78 210.13 820.448 209.425 821.294 208.92C822.14 208.415 823.09 208.163 824.143 208.163C825.197 208.163 826.139 208.415 826.971 208.92C827.816 209.41 828.477 210.1 828.952 210.99C829.442 211.881 829.686 212.89 829.686 214.018L829.664 214.33ZM824.143 209.143C823.327 209.143 822.593 209.328 821.94 209.699C821.287 210.055 820.76 210.567 820.359 211.235C819.973 211.888 819.751 212.63 819.691 213.461H828.596C828.551 212.63 828.328 211.888 827.928 211.235C827.527 210.582 827 210.07 826.347 209.699C825.694 209.328 824.96 209.143 824.143 209.143ZM832.368 213.395H838.089V214.396H832.368V213.395ZM856.295 208.163C857.735 208.163 858.863 208.586 859.679 209.432C860.51 210.278 860.926 211.495 860.926 213.083V219.873H859.813V213.172C859.813 211.866 859.493 210.872 858.855 210.189C858.217 209.506 857.327 209.165 856.184 209.165C854.878 209.165 853.839 209.573 853.067 210.389C852.311 211.206 851.932 212.304 851.932 213.684V219.873H850.819V213.172C850.819 211.866 850.5 210.872 849.862 210.189C849.224 209.506 848.333 209.165 847.19 209.165C845.884 209.165 844.846 209.573 844.074 210.389C843.317 211.206 842.939 212.304 842.939 213.684V219.873H841.826V208.252H842.894V210.745C843.28 209.929 843.851 209.299 844.608 208.853C845.38 208.393 846.293 208.163 847.346 208.163C848.4 208.163 849.29 208.401 850.018 208.876C850.76 209.35 851.287 210.048 851.598 210.968C851.984 210.107 852.585 209.425 853.401 208.92C854.232 208.415 855.197 208.163 856.295 208.163ZM869.439 208.163C870.879 208.163 871.985 208.534 872.756 209.276C873.528 210.003 873.914 211.079 873.914 212.504V219.873H872.845V217.802C872.474 218.485 871.933 219.019 871.22 219.405C870.508 219.776 869.655 219.962 868.66 219.962C867.369 219.962 866.345 219.657 865.588 219.049C864.846 218.44 864.475 217.639 864.475 216.645C864.475 215.68 864.817 214.901 865.499 214.307C866.197 213.699 867.302 213.395 868.816 213.395H872.801V212.46C872.801 211.376 872.504 210.553 871.91 209.989C871.332 209.425 870.478 209.143 869.35 209.143C868.579 209.143 867.837 209.276 867.124 209.543C866.427 209.811 865.833 210.167 865.343 210.612L864.787 209.811C865.366 209.291 866.063 208.89 866.879 208.608C867.696 208.312 868.549 208.163 869.439 208.163ZM868.816 219.049C869.781 219.049 870.597 218.826 871.265 218.381C871.948 217.936 872.46 217.29 872.801 216.444V214.263H868.838C867.696 214.263 866.865 214.471 866.345 214.886C865.841 215.302 865.588 215.873 865.588 216.6C865.588 217.357 865.87 217.958 866.434 218.403C866.998 218.834 867.792 219.049 868.816 219.049ZM878.5 208.252H879.613V219.873H878.5V208.252ZM879.056 205.425C878.804 205.425 878.589 205.343 878.411 205.18C878.233 205.002 878.144 204.787 878.144 204.535C878.144 204.282 878.233 204.067 878.411 203.889C878.589 203.711 878.804 203.622 879.056 203.622C879.309 203.622 879.524 203.711 879.702 203.889C879.88 204.052 879.969 204.26 879.969 204.512C879.969 204.765 879.88 204.98 879.702 205.158C879.524 205.336 879.309 205.425 879.056 205.425ZM884.304 203.355H885.417V219.873H884.304V203.355Z" fill="white"/>
<rect x="1048" y="187" width="303" height="50" rx="8.16242" fill="white"/>
<path d="M1119.63 204.417V220H1118.49V205.441H1107.94V220H1106.8V204.417H1119.63ZM1131.92 220.111C1130.39 220.111 1129.01 219.77 1127.78 219.087C1126.55 218.39 1125.57 217.44 1124.86 216.238C1124.16 215.036 1123.82 213.693 1123.82 212.209C1123.82 210.725 1124.16 209.381 1124.86 208.179C1125.57 206.977 1126.55 206.035 1127.78 205.352C1129.01 204.655 1130.39 204.306 1131.92 204.306C1133.45 204.306 1134.83 204.647 1136.06 205.33C1137.29 206.013 1138.26 206.955 1138.95 208.157C1139.67 209.359 1140.02 210.71 1140.02 212.209C1140.02 213.708 1139.67 215.058 1138.95 216.26C1138.26 217.462 1137.29 218.405 1136.06 219.087C1134.83 219.77 1133.45 220.111 1131.92 220.111ZM1131.92 219.065C1133.22 219.065 1134.4 218.768 1135.46 218.175C1136.51 217.581 1137.34 216.765 1137.95 215.726C1138.56 214.672 1138.86 213.5 1138.86 212.209C1138.86 210.917 1138.56 209.752 1137.95 208.714C1137.34 207.66 1136.51 206.836 1135.46 206.243C1134.4 205.649 1133.22 205.352 1131.92 205.352C1130.61 205.352 1129.43 205.649 1128.36 206.243C1127.3 206.836 1126.47 207.66 1125.86 208.714C1125.25 209.752 1124.95 210.917 1124.95 212.209C1124.95 213.5 1125.25 214.672 1125.86 215.726C1126.47 216.765 1127.3 217.581 1128.36 218.175C1129.43 218.768 1130.61 219.065 1131.92 219.065ZM1157.65 218.976V223.562H1156.56V220H1142.31L1142.29 223.562H1141.2L1141.22 218.976H1142.07C1143.09 218.887 1143.81 218.026 1144.21 216.394C1144.62 214.761 1144.87 212.476 1144.96 209.537L1145.12 204.417H1155.25V218.976H1157.65ZM1146.01 209.626C1145.92 212.149 1145.72 214.212 1145.41 215.815C1145.11 217.418 1144.6 218.471 1143.87 218.976H1154.11V205.441H1146.14L1146.01 209.626ZM1174.11 204.417V220H1172.97V205.441H1162.42V220H1161.28V204.417H1174.11ZM1179.72 204.417H1180.85V218.086L1191.47 204.417H1192.47V220H1191.34V206.354L1180.72 220H1179.72V204.417ZM1204.77 220.111C1203.24 220.111 1201.86 219.77 1200.63 219.087C1199.41 218.405 1198.44 217.462 1197.73 216.26C1197.03 215.058 1196.69 213.708 1196.69 212.209C1196.69 210.71 1197.03 209.359 1197.73 208.157C1198.44 206.955 1199.41 206.013 1200.63 205.33C1201.86 204.647 1203.24 204.306 1204.77 204.306C1205.89 204.306 1206.93 204.491 1207.88 204.862C1208.83 205.219 1209.64 205.753 1210.31 206.465L1209.6 207.2C1208.35 205.968 1206.76 205.352 1204.81 205.352C1203.51 205.352 1202.32 205.649 1201.25 206.243C1200.18 206.836 1199.34 207.66 1198.73 208.714C1198.13 209.752 1197.82 210.917 1197.82 212.209C1197.82 213.5 1198.13 214.672 1198.73 215.726C1199.34 216.765 1200.18 217.581 1201.25 218.175C1202.32 218.768 1203.51 219.065 1204.81 219.065C1206.74 219.065 1208.34 218.442 1209.6 217.195L1210.31 217.93C1209.64 218.642 1208.83 219.184 1207.86 219.555C1206.91 219.926 1205.88 220.111 1204.77 220.111ZM1223.43 215.615H1214.39L1212.41 220H1211.19L1218.35 204.417H1219.49L1226.66 220H1225.43L1223.43 215.615ZM1223.01 214.657L1218.91 205.664L1214.84 214.657H1223.01ZM1238.88 205.441H1233.27V220H1232.14V205.441H1226.53V204.417H1238.88V205.441ZM1248.17 210.116C1250.01 210.116 1251.41 210.524 1252.36 211.34C1253.32 212.157 1253.8 213.366 1253.8 214.969C1253.8 216.616 1253.29 217.87 1252.27 218.731C1251.26 219.577 1249.8 220 1247.88 220H1241.92V204.417H1243.05V210.116H1248.17ZM1247.9 219.043C1249.46 219.043 1250.64 218.701 1251.44 218.019C1252.24 217.336 1252.65 216.327 1252.65 214.991C1252.65 212.379 1251.06 211.073 1247.9 211.073H1243.05V219.043H1247.9ZM1264.35 220.111C1262.83 220.111 1261.45 219.77 1260.21 219.087C1259 218.405 1258.03 217.462 1257.32 216.26C1256.62 215.058 1256.27 213.708 1256.27 212.209C1256.27 210.71 1256.62 209.359 1257.32 208.157C1258.03 206.955 1259 206.013 1260.21 205.33C1261.45 204.647 1262.83 204.306 1264.35 204.306C1265.48 204.306 1266.52 204.491 1267.47 204.862C1268.42 205.219 1269.23 205.753 1269.9 206.465L1269.19 207.2C1267.94 205.968 1266.34 205.352 1264.4 205.352C1263.09 205.352 1261.91 205.649 1260.84 206.243C1259.77 206.836 1258.93 207.66 1258.32 208.714C1257.71 209.752 1257.41 210.917 1257.41 212.209C1257.41 213.5 1257.71 214.672 1258.32 215.726C1258.93 216.765 1259.77 217.581 1260.84 218.175C1261.91 218.768 1263.09 219.065 1264.4 219.065C1266.33 219.065 1267.92 218.442 1269.19 217.195L1269.9 217.93C1269.23 218.642 1268.41 219.184 1267.45 219.555C1266.5 219.926 1265.47 220.111 1264.35 220.111ZM1283.84 204.417V220H1282.7V215.103H1277.74C1277.35 215.103 1276.99 215.08 1276.65 215.036L1273.2 220H1271.97L1275.58 214.835C1274.42 214.509 1273.53 213.923 1272.91 213.077C1272.29 212.216 1271.97 211.14 1271.97 209.849C1271.97 208.127 1272.51 206.792 1273.58 205.842C1274.66 204.892 1276.12 204.417 1277.96 204.417H1283.84ZM1273.13 209.827C1273.13 211.207 1273.53 212.268 1274.33 213.01C1275.14 213.752 1276.31 214.123 1277.85 214.123H1282.7V205.441H1278.05C1276.48 205.441 1275.26 205.82 1274.4 206.577C1273.56 207.319 1273.13 208.402 1273.13 209.827Z" fill="#565656"/>
<path d="M1303 101L1306.37 88.674C1304.29 85.066 1303.2 80.976 1303.2 76.782C1303.21 63.67 1313.88 53 1326.99 53C1333.35 53.002 1339.32 55.48 1343.81 59.976C1348.3 64.472 1350.77 70.448 1350.77 76.804C1350.77 89.918 1340.1 100.588 1326.99 100.588C1323.01 100.586 1319.08 99.588 1315.61 97.692L1303 101ZM1316.19 93.386C1319.55 95.376 1322.75 96.568 1326.98 96.57C1337.87 96.57 1346.75 87.702 1346.76 76.8C1346.76 65.876 1337.93 57.02 1326.99 57.016C1316.09 57.016 1307.22 65.884 1307.22 76.784C1307.21 81.234 1308.52 84.566 1310.71 88.052L1308.71 95.348L1316.19 93.386ZM1338.97 82.458C1338.82 82.21 1338.42 82.062 1337.83 81.764C1337.23 81.466 1334.31 80.028 1333.77 79.83C1333.22 79.632 1332.83 79.532 1332.43 80.128C1332.03 80.722 1330.89 82.062 1330.55 82.458C1330.2 82.854 1329.85 82.904 1329.26 82.606C1328.66 82.308 1326.75 81.682 1324.48 79.656C1322.71 78.08 1321.52 76.134 1321.17 75.538C1320.83 74.944 1321.14 74.622 1321.43 74.326C1321.7 74.06 1322.03 73.632 1322.32 73.284C1322.63 72.94 1322.72 72.692 1322.92 72.294C1323.12 71.898 1323.02 71.55 1322.87 71.252C1322.72 70.956 1321.54 68.03 1321.04 66.84C1320.56 65.682 1320.07 65.838 1319.7 65.82L1318.56 65.8C1318.17 65.8 1317.52 65.948 1316.98 66.544C1316.44 67.14 1314.9 68.576 1314.9 71.502C1314.9 74.428 1317.03 77.254 1317.33 77.65C1317.62 78.046 1321.52 84.05 1327.48 86.624C1328.9 87.236 1330 87.602 1330.87 87.876C1332.29 88.328 1333.59 88.264 1334.61 88.112C1335.75 87.942 1338.13 86.674 1338.62 85.286C1339.12 83.896 1339.12 82.706 1338.97 82.458Z" fill="white"/>
<g clip-path="url(#clip0_102_11)">
<path fill-rule="evenodd" clip-rule="evenodd" d="M1229.37 56.3741C1226 59.7483 1226 65.1788 1226 76.04V77.96C1226 88.8212 1226 94.2517 1229.37 97.6259C1232.75 101 1238.18 101 1249.04 101H1250.96C1261.82 101 1267.25 101 1270.63 97.6259C1274 94.2517 1274 88.8212 1274 77.96V76.04C1274 65.1788 1274 59.7483 1270.63 56.3741C1267.25 53 1261.82 53 1250.96 53H1249.04C1238.18 53 1232.75 53 1229.37 56.3741ZM1234.1 67.6001C1234.36 80.0801 1240.6 87.5801 1251.54 87.5801H1252.16V80.4401C1256.18 80.8401 1259.22 83.7801 1260.44 87.5801H1266.12C1264.56 81.9001 1260.46 78.7601 1257.9 77.5601C1260.46 76.0801 1264.06 72.4801 1264.92 67.6001H1259.76C1258.64 71.5601 1255.32 75.1601 1252.16 75.5001V67.6001H1247V81.4401C1243.8 80.6401 1239.76 76.7601 1239.58 67.6001H1234.1Z" fill="white"/>
</g>
<g clip-path="url(#clip1_102_11)">
<path fill-rule="evenodd" clip-rule="evenodd" d="M1197 77C1197 90.2548 1186.25 101 1173 101C1159.75 101 1149 90.2548 1149 77C1149 63.7452 1159.75 53 1173 53C1186.25 53 1197 63.7452 1197 77ZM1173.86 70.7179C1171.53 71.6888 1166.86 73.6984 1159.86 76.7466C1158.73 77.1984 1158.13 77.6404 1158.08 78.0726C1157.99 78.803 1158.9 79.0906 1160.15 79.4822C1160.32 79.5355 1160.49 79.5907 1160.67 79.6492C1161.9 80.0475 1163.55 80.5135 1164.4 80.5321C1165.18 80.5489 1166.05 80.2284 1167.01 79.5707C1173.54 75.158 1176.92 72.9276 1177.13 72.8795C1177.28 72.8456 1177.49 72.803 1177.63 72.9277C1177.77 73.0524 1177.75 73.2886 1177.74 73.352C1177.65 73.7383 1174.06 77.0762 1172.2 78.8036C1171.62 79.3421 1171.21 79.724 1171.12 79.8113C1170.94 80.0067 1170.74 80.1915 1170.56 80.3692C1169.42 81.4667 1168.57 82.2896 1170.61 83.6336C1171.59 84.2794 1172.37 84.8135 1173.15 85.3463C1174.01 85.9282 1174.86 86.5085 1175.96 87.2313C1176.24 87.4155 1176.51 87.6068 1176.77 87.7931C1177.77 88.5019 1178.66 89.1388 1179.77 89.0373C1180.41 88.9782 1181.07 88.3752 1181.41 86.5767C1182.2 82.3263 1183.76 73.1169 1184.12 69.3219C1184.16 68.9895 1184.12 68.5639 1184.08 68.3771C1184.05 68.1904 1183.99 67.9242 1183.74 67.7272C1183.46 67.4939 1183.01 67.4447 1182.81 67.4482C1181.91 67.4641 1180.53 67.9456 1173.86 70.7179Z" fill="white"/>
</g>
<defs>
<clipPath id="clip0_102_11">
<rect width="48" height="48" fill="white" transform="translate(1226 53)"/>
</clipPath>
<clipPath id="clip1_102_11">
<rect width="48" height="48" fill="white" transform="translate(1149 53)"/>
</clipPath>
</defs>
</svg>
